<svg width="258" height="64" viewBox="0 0 258 64" fill="none" xmlns="http://www.w3.org/2000/svg" role="img" aria-labelledby="title desc">
    <title id="title">Mania de Preco</title>
    <desc id="desc">Logo horizontal do Mania de Preco</desc>
    <rect width="64" height="64" rx="20" fill="#21140F"/>
    <path d="M15 19C15 15.6863 17.6863 13 21 13H42.636C44.226 13 45.751 13.6317 46.875 14.756L51.244 19.125C52.368 20.249 53 21.774 53 23.364V43C53 46.3137 50.3137 49 47 49H21C17.6863 49 15 46.3137 15 43V19Z" fill="url(#paint0_linear)"/>
    <circle cx="44" cy="23" r="3.5" fill="#FFF7EB"/>
    <path d="M23 40L29.5 33.5L35 37.5L45 26" stroke="#FFF7EB" stroke-width="4.6" stroke-linecap="round" stroke-linejoin="round"/>
    <path d="M23 26H35" stroke="#FFF7EB" stroke-width="4.6" stroke-linecap="round"/>
    <path d="M82 25.0909H87.283L94.017 41.5114H94.2898L101.024 25.0909H106.307V49H102.165V32.55H101.943L95.6756 48.9297H92.6313L86.3631 32.5209H86.142V49H82V25.0909Z" fill="#21140F"/>
    <path d="M117.385 49.3494C115.645 49.3494 114.075 48.9735 112.674 48.2216C111.281 47.4697 110.18 46.4081 109.371 45.0369C108.562 43.6657 108.157 42.0678 108.157 40.2433C108.157 38.4109 108.562 36.8092 109.371 35.438C110.18 34.0668 111.281 33.0013 112.674 32.2416C114.075 31.4818 115.645 31.1019 117.385 31.1019C119.125 31.1019 120.691 31.4818 122.084 32.2416C123.485 33.0013 124.59 34.0668 125.399 35.438C126.208 36.8092 126.612 38.4109 126.612 40.2433C126.612 42.0678 126.208 43.6657 125.399 45.0369C124.59 46.4081 123.485 47.4697 122.084 48.2216C120.691 48.9735 119.125 49.3494 117.385 49.3494ZM117.408 45.7712C118.351 45.7712 119.137 45.5098 119.767 44.987C120.397 44.4564 120.866 43.746 121.174 42.8558C121.49 41.9656 121.648 41.0015 121.648 39.9635C121.648 38.9176 121.49 37.9497 121.174 37.0595C120.866 36.1615 120.397 35.4471 119.767 34.9165C119.137 34.3858 118.351 34.1205 117.408 34.1205C116.441 34.1205 115.638 34.3858 115.001 34.9165C114.371 35.4471 113.898 36.1615 113.582 37.0595C113.274 37.9497 113.12 38.9176 113.12 39.9635C113.12 41.0015 113.274 41.9656 113.582 42.8558C113.898 43.746 114.371 44.4564 115.001 44.987C115.638 45.5098 116.441 45.7712 117.408 45.7712Z" fill="#21140F"/>
    <path d="M133.705 38.7997V49H128.851V31.3338H133.484V34.3374H133.693C134.103 33.346 134.756 32.559 135.654 31.9765C136.56 31.394 137.684 31.1028 139.027 31.1028C140.269 31.1028 141.348 31.3681 142.264 31.8988C143.184 32.4294 143.898 33.197 144.406 34.2014C144.922 35.1971 145.176 36.4042 145.168 37.8227V49H140.314V38.563C140.314 37.3927 140.008 36.4792 139.396 35.8224C138.791 35.1656 137.95 34.8372 136.872 34.8372C136.138 34.8372 135.484 34.9985 134.909 35.3212C134.342 35.6359 133.898 36.0943 133.577 36.6962C133.264 37.2981 133.108 37.9993 133.108 38.7997H133.705Z" fill="#21140F"/>
    <path d="M154.291 49.3494C153.171 49.3494 152.164 49.1482 151.27 48.7458C150.384 48.3356 149.682 47.7317 149.164 46.9341C148.654 46.1365 148.399 45.1529 148.399 43.9833C148.399 42.9775 148.584 42.145 148.954 41.4857C149.324 40.8265 149.828 40.2977 150.466 39.8992C151.104 39.5008 151.826 39.199 152.632 38.9939C153.446 38.7811 154.287 38.6261 155.156 38.5292C156.206 38.416 157.057 38.3144 157.708 38.2245C158.361 38.1268 158.835 37.9813 159.13 37.788C159.433 37.587 159.584 37.2778 159.584 36.8605V36.791C159.584 35.9535 159.336 35.3047 158.839 34.8445C158.342 34.3843 157.625 34.1542 156.688 34.1542C155.695 34.1542 154.913 34.3688 154.341 34.798C153.777 35.2272 153.397 35.7349 153.202 36.3212L148.655 35.7078C148.967 34.6325 149.474 33.7371 150.177 33.0216C150.881 32.2984 151.742 31.7584 152.762 31.4018C153.782 31.0374 154.904 30.8551 156.129 30.8551C156.969 30.8551 157.805 30.9528 158.638 31.1482C159.471 31.3436 160.231 31.6688 160.918 32.1238C161.604 32.5712 162.154 33.179 162.567 33.9474C162.987 34.7158 163.197 35.6759 163.197 36.8278V49H158.58V46.547H158.44C158.145 47.1178 157.739 47.6539 157.222 48.1554C156.704 48.6491 156.071 49.0456 155.321 49.3447C154.579 49.644 153.726 49.7936 152.762 49.7936L154.291 49.3494ZM155.561 46.3516C156.371 46.3516 157.073 46.1917 157.668 45.872C158.264 45.5445 158.724 45.1153 159.048 44.5845C159.38 44.0459 159.546 43.4596 159.546 42.8255V40.7166C159.395 40.8401 159.142 40.9559 158.787 41.064C158.44 41.1721 158.047 41.2686 157.606 41.3535C157.166 41.4384 156.73 41.5118 156.298 41.5736C155.866 41.6354 155.492 41.6894 155.175 41.7357C154.549 41.8206 153.989 41.9674 153.495 42.176C153.001 42.3845 152.613 42.6743 152.331 43.0453C152.049 43.4086 151.908 43.88 151.908 44.4594C151.908 45.2862 152.211 45.913 152.817 46.3399C153.423 46.759 154.202 46.9685 155.155 46.9685L155.561 46.3516Z" fill="#21140F"/>
    <path d="M179.961 49.3494C178.571 49.3494 177.327 48.9959 176.229 48.2889C175.131 47.5819 174.265 46.5469 173.63 45.1839C172.995 43.8209 172.678 42.158 172.678 40.1952C172.678 38.2091 173.003 36.5384 173.652 35.1831C174.301 33.8201 175.175 32.793 176.273 32.1018C177.371 31.4028 178.603 31.0533 179.969 31.0533C181.012 31.0533 181.873 31.2319 182.552 31.589C183.232 31.9385 183.77 32.3618 184.167 32.8589C184.564 33.3483 184.87 33.8123 185.085 34.2509H185.257V25.0909H190.111V49H185.346V46.2165H185.085C184.87 46.6551 184.556 47.1191 184.143 47.6085C183.738 48.0901 183.196 48.5017 182.517 48.8434C181.837 49.1807 180.985 49.3494 179.961 49.3494ZM181.32 45.5739C182.194 45.5739 182.938 45.3357 183.553 44.8594C184.167 44.3831 184.633 43.7195 184.951 42.8687C185.268 42.0178 185.427 41.0296 185.427 39.9041C185.427 38.7786 185.268 37.7982 184.951 36.9627C184.641 36.1195 184.179 35.4676 183.565 35.0071C182.958 34.5389 182.21 34.3048 181.32 34.3048C180.399 34.3048 179.632 34.5467 179.018 35.0304C178.403 35.5141 177.941 36.1776 177.632 37.0208C177.322 37.864 177.167 38.8254 177.167 39.9041C177.167 40.9907 177.322 41.9638 177.632 42.8234C177.949 43.6755 178.415 44.3488 179.029 44.8435C179.651 45.3304 180.415 45.5739 181.32 45.5739Z" fill="#21140F"/>
    <path d="M201.368 49.3494C199.598 49.3494 198.07 48.9793 196.785 48.2392C195.508 47.4913 194.525 46.4358 193.836 45.0728C193.154 43.702 192.813 42.0882 192.813 40.2315C192.813 38.4058 193.154 36.8037 193.836 35.4252C194.525 34.0389 195.488 32.9601 196.726 32.1889C197.963 31.4176 199.416 31.032 201.085 31.032C202.163 31.032 203.182 31.2067 204.142 31.5562C205.109 31.8979 205.96 32.4301 206.694 33.1528C207.435 33.8755 208.018 34.7964 208.443 35.9154C208.868 37.0267 209.081 38.3513 209.081 39.8892V41.3717H195.093V38.565H204.472C204.464 37.7706 204.291 37.0636 203.952 36.4439C203.612 35.8163 203.134 35.3235 202.519 34.9654C201.913 34.6074 201.207 34.4284 200.402 34.4284C199.543 34.4284 198.788 34.6388 198.135 35.0598C197.482 35.4729 196.974 36.019 196.611 36.698C196.256 37.369 196.074 38.1069 196.066 38.9117V41.3183C196.066 42.3642 196.256 43.2622 196.635 44.0124C197.015 44.7548 197.547 45.3235 198.232 45.7188C198.917 46.1062 199.718 46.3 200.637 46.3C201.252 46.3 201.809 46.2147 202.308 46.044C202.806 45.8657 203.235 45.6062 203.596 45.2656C203.956 44.925 204.228 44.5036 204.41 44.0014L208.955 44.5135C208.712 45.5419 208.246 46.4399 207.557 47.2074C206.875 47.967 206.003 48.5586 204.94 48.9822C203.878 49.397 202.687 49.6044 201.368 49.6044V49.3494Z" fill="#21140F"/>
    <path d="M220.024 49V25.0909H229.121C230.96 25.0909 232.505 25.4337 233.758 26.1193C235.019 26.805 235.972 27.7443 236.619 28.9371C237.273 30.1221 237.6 31.4672 237.6 32.9723C237.6 34.493 237.273 35.8458 236.619 37.0309C235.965 38.216 235.003 39.1513 233.734 39.837C232.466 40.5149 230.908 40.8538 229.062 40.8538H223.033V37.2635H228.478C229.555 37.2635 230.439 37.0765 231.132 36.7024C231.825 36.3283 232.338 35.8138 232.669 35.1589C233.008 34.504 233.177 33.775 233.177 32.9723C233.177 32.1695 233.008 31.4445 232.669 30.7974C232.338 30.1502 231.821 29.6435 231.119 29.2772C230.426 28.9031 229.537 28.7161 228.452 28.7161H224.36V49H220.024Z" fill="#21140F"/>
    <path d="M247.744 49.3494C245.974 49.3494 244.446 48.9793 243.161 48.2392C241.884 47.4913 240.901 46.4358 240.212 45.0728C239.53 43.702 239.189 42.0882 239.189 40.2315C239.189 38.4058 239.53 36.8037 240.212 35.4252C240.901 34.0389 241.864 32.9601 243.102 32.1889C244.339 31.4176 245.792 31.032 247.461 31.032C248.539 31.032 249.558 31.2067 250.518 31.5562C251.485 31.8979 252.336 32.4301 253.07 33.1528C253.811 33.8755 254.394 34.7964 254.819 35.9154C255.244 37.0267 255.457 38.3513 255.457 39.8892V41.3717H241.469V38.565H250.848C250.84 37.7706 250.667 37.0636 250.328 36.4439C249.988 35.8163 249.51 35.3235 248.895 34.9654C248.289 34.6074 247.583 34.4284 246.778 34.4284C245.919 34.4284 245.164 34.6388 244.511 35.0598C243.858 35.4729 243.35 36.019 242.987 36.698C242.632 37.369 242.45 38.1069 242.442 38.9117V41.3183C242.442 42.3642 242.632 43.2622 243.011 44.0124C243.391 44.7548 243.923 45.3235 244.608 45.7188C245.293 46.1062 246.094 46.3 247.013 46.3C247.628 46.3 248.185 46.2147 248.684 46.044C249.182 45.8657 249.611 45.6062 249.972 45.2656C250.332 44.925 250.604 44.5036 250.786 44.0014L255.331 44.5135C255.088 45.5419 254.622 46.4399 253.933 47.2074C253.251 47.967 252.379 48.5586 251.316 48.9822C250.254 49.397 249.063 49.6044 247.744 49.6044V49.3494Z" fill="#21140F"/>
    <defs>
        <linearGradient id="paint0_linear" x1="15" y1="13" x2="54.5" y2="47" gradientUnits="userSpaceOnUse">
            <stop stop-color="#FF7A35"/>
            <stop offset="0.56" stop-color="#F45A24"/>
            <stop offset="1" stop-color="#19B789"/>
        </linearGradient>
    </defs>
</svg>
